# xmcd CD database file
#
# Track frame offsets:
#	150
#	20017
#	43522
#	64047
#	88270
#	126500
#	157565
#	167610
#	189720
#	211247
#	225652
#	246492
#
# Disc length: 3531 seconds
#
# Revision: 2
# Processed by: cddbd v1.4PL0 Copyright (c) Steve Scherf et al.
# Submitted via: CDex 1.50
#
DISCID=a00dc90c
DTITLE=The Tony Vega Band - Dear Sweet Goodness
DYEAR=2002
DGENRE=Blues
TTITLE0=Orq's Swing
TTITLE1=Old Maid
TTITLE2=Rollin' Down From Memphis
TTITLE3=Wild Rose
TTITLE4=Frisco
TTITLE5=Five Minutes
TTITLE6=Ghost Train
TTITLE7=Sweet In Between
TTITLE8=Lights Of Las Vegas
TTITLE9=Dear Sweet Goodness
TTITLE10=Down In Texas
TTITLE11=Cream and Sugar
EXTD=YEAR: 2002
EXTT0=
EXTT1=
EXTT2=
EXTT3=
EXTT4=
EXTT5=
EXTT6=
EXTT7=
EXTT8=
EXTT9=
EXTT10=
EXTT11=
PLAYORDER=
